<svg version="1.1" xmlns="http://www.w3.org/2000/svg" viewBox="0 0 818.1733122813264 955.3917330740851" width="818.1733122813264" height="955.3917330740851">
  <!-- svg-source:excalidraw -->
  
  <defs>
    <style>
      @font-face {
        font-family: "Virgil";
        src: url("https://unpkg.com/@excalidraw/excalidraw@0.13.0-4d26993/dist/excalidraw-assets/Virgil.woff2");
      }
      @font-face {
        font-family: "Cascadia";
        src: url("https://unpkg.com/@excalidraw/excalidraw@0.13.0-4d26993/dist/excalidraw-assets/Cascadia.woff2");
      }
    </style>
  </defs>
  <g stroke-linecap="round"><g transform="translate(245.5152275692344 350.436962660658) rotate(0 0 85.71428571428567)"><path d="M0 0 C0 55.28, 0 110.56, 0 171.43 M0 0 C0 38.8, 0 77.6, 0 171.43" stroke="#000000" stroke-width="4" fill="none"></path></g></g><g stroke-linecap="round"><g transform="translate(568.3723704263775 350.436962660658) rotate(0 0 85.71428571428567)"><path d="M0 0 C0 67.12, 0 134.23, 0 171.43 M0 0 C0 38.56, 0 77.13, 0 171.43" stroke="#000000" stroke-width="4" fill="none"></path></g></g><g stroke-linecap="round" transform="translate(211.2295132835202 307.57981980351514) rotate(0 197.85714285714278 128.57142857142856)"><path d="M64.29 0 M64.29 0 C157.88 0, 251.48 0, 331.43 0 M64.29 0 C139.74 0, 215.19 0, 331.43 0 M331.43 0 C374.29 0, 395.71 21.43, 395.71 64.29 M331.43 0 C374.29 0, 395.71 21.43, 395.71 64.29 M395.71 64.29 C395.71 115.68, 395.71 167.07, 395.71 192.86 M395.71 64.29 C395.71 110.93, 395.71 157.57, 395.71 192.86 M395.71 192.86 C395.71 235.71, 374.29 257.14, 331.43 257.14 M395.71 192.86 C395.71 235.71, 374.29 257.14, 331.43 257.14 M331.43 257.14 C259.38 257.14, 187.33 257.14, 64.29 257.14 M331.43 257.14 C247.84 257.14, 164.25 257.14, 64.29 257.14 M64.29 257.14 C21.43 257.14, 0 235.71, 0 192.86 M64.29 257.14 C21.43 257.14, 0 235.71, 0 192.86 M0 192.86 C0 143.17, 0 93.49, 0 64.29 M0 192.86 C0 155.7, 0 118.55, 0 64.29 M0 64.29 C0 21.43, 21.43 0, 64.29 0 M0 64.29 C0 21.43, 21.43 0, 64.29 0" stroke="#000000" stroke-width="4" fill="none"></path></g><g transform="translate(263.3899541966448 314.44159475135893) rotate(0 15 43.5)"><text x="0" y="61" font-family="Virgil, Segoe UI Emoji" font-size="69.10619729108502px" fill="#000000" text-anchor="start" style="white-space: pre;" direction="ltr">-</text></g><g transform="translate(263.38995419664457 364.98628849659605) rotate(0 15 43.50000000000001)"><text x="0" y="61" font-family="Virgil, Segoe UI Emoji" font-size="69.10619729108502px" fill="#000000" text-anchor="start" style="white-space: pre;" direction="ltr">-</text></g><g transform="translate(263.3899541966448 415.53098224183316) rotate(0 15 43.5)"><text x="0" y="61" font-family="Virgil, Segoe UI Emoji" font-size="69.10619729108502px" fill="#000000" text-anchor="start" style="white-space: pre;" direction="ltr">-</text></g><g transform="translate(263.38995419664457 466.0756759870703) rotate(0 15 43.499999999999986)"><text x="0" y="61" font-family="Virgil, Segoe UI Emoji" font-size="69.10619729108502px" fill="#000000" text-anchor="start" style="white-space: pre;" direction="ltr">-</text></g><g transform="translate(517.645376865856 327.92190122215055) rotate(0 22.5 43.5)"><text x="0" y="61" font-family="Virgil, Segoe UI Emoji" font-size="69.10619729108502px" fill="#000000" text-anchor="start" style="white-space: pre;" direction="ltr">+</text></g><g transform="translate(517.645376865856 372.20761550786494) rotate(0 22.5 43.5)"><text x="0" y="61" font-family="Virgil, Segoe UI Emoji" font-size="69.10619729108502px" fill="#000000" text-anchor="start" style="white-space: pre;" direction="ltr">+</text></g><g transform="translate(517.645376865856 416.4933297935793) rotate(0 22.5 43.5)"><text x="0" y="61" font-family="Virgil, Segoe UI Emoji" font-size="69.10619729108502px" fill="#000000" text-anchor="start" style="white-space: pre;" direction="ltr">+</text></g><g transform="translate(517.645376865856 460.7790440792936) rotate(0 22.5 43.5)"><text x="0" y="61" font-family="Virgil, Segoe UI Emoji" font-size="69.10619729108502px" fill="#000000" text-anchor="start" style="white-space: pre;" direction="ltr">+</text></g><g stroke-linecap="round"><g transform="translate(244.1969745739268 436.1512483749437) rotate(0 -117.08532681654162 0)"><path d="M0 0 C-76.51 0, -153.01 0, -234.17 0 M0 0 C-89.86 0, -179.73 0, -234.17 0" stroke="#000000" stroke-width="4" fill="none"></path></g></g><g stroke-linecap="round"><g transform="translate(10 436.7683575547456) rotate(0 0 225.1992379900564)"><path d="M0 0 C0 134.54, 0 269.08, 0 450.4 M0 0 C0 150.33, 0 300.66, 0 450.4" stroke="#000000" stroke-width="4" fill="none"></path></g></g><g stroke-linecap="round"><g transform="translate(159.5769127071478 887.4908652638048) rotate(270 57.90086781028026 0)"><path d="M0 0 C26.96 0, 53.92 0, 115.8 0 M0 0 C40.76 0, 81.52 0, 115.8 0" stroke="#000000" stroke-width="4" fill="none"></path></g></g><g stroke-linecap="round"><g transform="translate(218.3442412899608 887.4908652638048) rotate(270 29.07962835206331 0)"><path d="M0 0 C16.66 0, 33.32 0, 58.16 0 M0 0 C22.9 0, 45.8 0, 58.16 0" stroke="#000000" stroke-width="4" fill="none"></path></g></g><g stroke-linecap="round"><g transform="translate(113.01955772773022 990.3948615152317) rotate(270 0 -102.90399625142697)"><path d="M0 0 C0 -49.67, 0 -99.33, 0 -205.81 M0 0 C0 -61.61, 0 -123.22, 0 -205.81" stroke="#000000" stroke-width="4" fill="none"></path></g></g><g transform="translate(154.39843321635612 798.7679065329453) rotate(270 22.5 43.5)"><text x="0" y="61" font-family="Virgil, Segoe UI Emoji" font-size="69.10619729108502px" fill="#000000" text-anchor="start" style="white-space: pre;" direction="ltr">+</text></g><g transform="translate(267.00381827757974 801.4204184191987) rotate(0 15 43.5)"><text x="0" y="61" font-family="Virgil, Segoe UI Emoji" font-size="69.10619729108502px" fill="#000000" text-anchor="start" style="white-space: pre;" direction="ltr">-</text></g><g stroke-linecap="round" transform="translate(540.142810502193 834.3122578026997) rotate(89.99999999999994 53.98184771510091 53.981847715101026)"><path d="M107.96 53.98 C107.96 56.33, 107.81 58.7, 107.5 61.03 C107.2 63.36, 106.73 65.68, 106.12 67.95 C105.52 70.22, 104.75 72.47, 103.85 74.64 C102.96 76.81, 101.91 78.94, 100.73 80.97 C99.56 83.01, 98.24 84.98, 96.81 86.84 C95.38 88.71, 93.81 90.49, 92.15 92.15 C90.49 93.81, 88.71 95.38, 86.84 96.81 C84.98 98.24, 83.01 99.56, 80.97 100.73 C78.94 101.91, 76.81 102.96, 74.64 103.85 C72.47 104.75, 70.22 105.52, 67.95 106.12 C65.68 106.73, 63.36 107.2, 61.03 107.5 C58.7 107.81, 56.33 107.96, 53.98 107.96 C51.63 107.96, 49.26 107.81, 46.94 107.5 C44.61 107.2, 42.28 106.73, 40.01 106.12 C37.74 105.52, 35.49 104.75, 33.32 103.85 C31.15 102.96, 29.02 101.91, 26.99 100.73 C24.96 99.56, 22.98 98.24, 21.12 96.81 C19.26 95.38, 17.47 93.81, 15.81 92.15 C14.15 90.49, 12.58 88.71, 11.16 86.84 C9.73 84.98, 8.41 83.01, 7.23 80.97 C6.06 78.94, 5.01 76.81, 4.11 74.64 C3.21 72.47, 2.45 70.22, 1.84 67.95 C1.23 65.68, 0.77 63.36, 0.46 61.03 C0.16 58.7, 0 56.33, 0 53.98 C0 51.63, 0.16 49.26, 0.46 46.94 C0.77 44.61, 1.23 42.28, 1.84 40.01 C2.45 37.74, 3.21 35.49, 4.11 33.32 C5.01 31.15, 6.06 29.02, 7.23 26.99 C8.41 24.96, 9.73 22.98, 11.16 21.12 C12.58 19.26, 14.15 17.47, 15.81 15.81 C17.47 14.15, 19.26 12.58, 21.12 11.16 C22.98 9.73, 24.96 8.41, 26.99 7.23 C29.02 6.06, 31.15 5.01, 33.32 4.11 C35.49 3.21, 37.74 2.45, 40.01 1.84 C42.28 1.23, 44.61 0.77, 46.94 0.46 C49.26 0.16, 51.63 0, 53.98 0 C56.33 0, 58.7 0.16, 61.03 0.46 C63.36 0.77, 65.68 1.23, 67.95 1.84 C70.22 2.45, 72.47 3.21, 74.64 4.11 C76.81 5.01, 78.94 6.06, 80.97 7.23 C83.01 8.41, 84.98 9.73, 86.84 11.16 C88.71 12.58, 90.49 14.15, 92.15 15.81 C93.81 17.47, 95.38 19.26, 96.81 21.12 C98.24 22.98, 99.56 24.96, 100.73 26.99 C101.91 29.02, 102.96 31.15, 103.85 33.32 C104.75 35.49, 105.52 37.74, 106.12 40.01 C106.73 42.28, 107.2 44.61, 107.5 46.94 C107.81 49.26, 107.89 52.81, 107.96 53.98 C108.04 55.16, 108.04 52.81, 107.96 53.98" stroke="#000000" stroke-width="4" fill="none"></path></g><g transform="translate(582.6246582172942 864.2941055178007) rotate(0 11.5 21.5)"><text x="11.5" y="35" font-family="Cascadia, Segoe UI Emoji" font-size="36px" fill="#000000" text-anchor="middle" style="white-space: pre;" direction="ltr">A</text></g><g stroke-linecap="round"><g transform="translate(728.6628144805397 969.801501195222) rotate(89.99999999999994 0 -79.46209498193775)"><path d="M0 0 C0 -57.4, 0 -114.8, 0 -158.92 M0 0 C0 -57.64, 0 -115.29, 0 -158.92" stroke="#000000" stroke-width="4" fill="none"></path></g></g><g stroke-linecap="round"><g transform="translate(393.80858675144873 742.8415481901047) rotate(89.99999999999994 -1.1368683772161603e-13 145.22111034512056)"><path d="M0 0 C0 82.06, 0 164.12, 0 290.44 M0 0 C0 109.79, 0 219.58, 0 290.44" stroke="#000000" stroke-width="4" fill="none"></path></g></g><g stroke-linecap="round"><g transform="translate(808.1469913404824 436.1512483749437) rotate(0 -119.43370747783592 0)"><path d="M0 0 C-91.65 0, -183.31 0, -238.87 0 M0 0 C-63.96 0, -127.93 0, -238.87 0" stroke="#000000" stroke-width="4" fill="none"></path></g></g><g stroke-linecap="round"><g transform="translate(808.1733122813264 436.32678746785416) rotate(0 0 226.88817107267522)"><path d="M0 0 C0 122.98, 0 245.95, 0 453.78 M0 0 C0 98.6, 0 197.21, 0 453.78" stroke="#000000" stroke-width="4" fill="none"></path></g></g><g stroke-linecap="round" transform="translate(602.9906158631418 57.196492428279214) rotate(326.49949894980216 95.61338466980351 33.57092172850881)"><path d="M0 0 C71.39 0, 142.79 0, 191.23 0 M0 0 C65.38 0, 130.77 0, 191.23 0 M191.23 0 C191.23 14.6, 191.23 29.19, 191.23 67.14 M191.23 0 C191.23 15.92, 191.23 31.83, 191.23 67.14 M191.23 67.14 C116.77 67.14, 42.32 67.14, 0 67.14 M191.23 67.14 C131.87 67.14, 72.51 67.14, 0 67.14 M0 67.14 C0 48.35, 0 29.56, 0 0 M0 67.14 C0 45.9, 0 24.66, 0 0" stroke="#000000" stroke-width="4" fill="none"></path></g><g stroke-linecap="round"><g transform="translate(557.2158069023196 104.68334301487346) rotate(326.49949894980216 0 79.66865314964393)"><path d="M0 0 C0 59.22, 0 118.45, 0 159.34 M0 0 C0 58.1, 0 116.2, 0 159.34" stroke="#000000" stroke-width="4" fill="none"></path></g></g><g stroke-linecap="round"><g transform="translate(520.2729717001646 93.63383764470603) rotate(326.49949894980216 36.92170603464933 23.02269089070819)"><path d="M0 0 C23.87 14.88, 47.74 29.77, 73.84 46.05 M0 0 C24.45 15.25, 48.9 30.49, 73.84 46.05" stroke="#000000" stroke-width="4" fill="none"></path></g></g><g stroke-linecap="round"><g transform="translate(582.1371875600883 233.68556067815572) rotate(326.49949894980216 37.17676792186103 -22.96613745295621)"><path d="M0 0 C19.98 -12.35, 39.97 -24.69, 74.35 -45.93 M0 0 C24.88 -15.37, 49.76 -30.74, 74.35 -45.93" stroke="#000000" stroke-width="4" fill="none"></path></g></g><g stroke-linecap="round" transform="translate(615.4102403776785 90.06566265269308) rotate(326.49949894980216 10.977427881090534 3.582108045408461)"><path d="M0 0 C5.95 0, 11.9 0, 21.95 0 M0 0 C6.16 0, 12.33 0, 21.95 0 M21.95 0 C21.95 1.81, 21.95 3.61, 21.95 7.16 M21.95 0 C21.95 2.73, 21.95 5.46, 21.95 7.16 M21.95 7.16 C14.57 7.16, 7.19 7.16, 0 7.16 M21.95 7.16 C16.31 7.16, 10.67 7.16, 0 7.16 M0 7.16 C0 4.5, 0 1.83, 0 0 M0 7.16 C0 5.57, 0 3.98, 0 0" stroke="#000000" stroke-width="4" fill="none"></path></g><g stroke-linecap="round"><g transform="translate(556.9034362941354 127.3573634586761) rotate(326.49949894980216 -4.639155776964685 60.549181154646284)"><path d="M0 0 C-1.06 2.75, -4.84 6.34, -6.39 16.52 C-7.94 26.7, -9.24 46.65, -9.28 61.09 C-9.31 75.53, -8.13 93.17, -6.59 103.17 C-5.04 113.17, -1.1 118.11, 0 121.1 M0 0 C-1.06 2.75, -4.84 6.34, -6.39 16.52 C-7.94 26.7, -9.24 46.65, -9.28 61.09 C-9.31 75.53, -8.13 93.17, -6.59 103.17 C-5.04 113.17, -1.1 118.11, 0 121.1" stroke="#000000" stroke-width="4" fill="none"></path></g></g><g stroke-linecap="round"><g transform="translate(609.3501335517351 252.7830311672113) rotate(353.6097121608222 -156.77061656187254 160.1329890350495)"><path d="M0 0 C-52.26 53.38, -261.28 266.89, -313.54 320.27 M0 0 C-52.26 53.38, -261.28 266.89, -313.54 320.27" stroke="#000000" stroke-width="4" fill="none"></path></g></g><g stroke-linecap="round"><g transform="translate(530.7383130562721 158.23737607913142) rotate(353.6097121608222 -222.37012856232343 61.84420467614938)"><path d="M0 0 C-74.12 20.61, -370.62 103.07, -444.74 123.69 M0 0 C-74.12 20.61, -370.62 103.07, -444.74 123.69" stroke="ffff0" stroke-width="4" fill="none"></path></g></g></svg>