<?xml version="1.0" encoding="utf-8"?>
<svg xmlns="http://www.w3.org/2000/svg" fill="none" version="1.1" viewBox="-71.8661 -71.8661 143.732 143.732" x="-71.8661pt" y="-71.8661pt" width="143.732pt" height="143.732pt" stroke-width="0.566929" stroke-miterlimit="10.000000">
 <path d="M56.6929 -0L56.6928 -0.0989477A56.6929 56.6929 0 0 0 -56.6929 -3.21196e-14A56.6929 56.6929 0 0 0 56.6928 0.0989477Z" stroke="black"/>
 <path d="M38.1423 -43.4293L38.1423 -43.4323A1.70079 1.70079 0 0 0 34.7407 -43.4293A1.70079 1.70079 0 0 0 38.1423 -43.4263Z" fill="black"/>
 <g stroke-linecap="butt" stroke-dasharray="2.000000" stroke-dashoffset="0.000000">
  <path d="M36.4415 -43.4293L0 -43.4293" stroke="black"/>
 </g>
 <g stroke-linecap="butt" stroke-dasharray="2.000000" stroke-dashoffset="0.000000">
  <path d="M36.4415 -43.4293L36.4415 -0" stroke="black"/>
 </g>
 <g transform="matrix(1.000000,0.000000,0.000000,1.000000,36.441502,7.086614)">
  <path d="M0.288917 -0M3.32752 -3.00872C3.3873 -3.26775 3.61644 -4.18431 4.31382 -4.18431C4.36364 -4.18431 4.60274 -4.18431 4.81196 -4.05479C4.533 -4.00498 4.33375 -3.75592 4.33375 -3.51681C4.33375 -3.35741 4.44334 -3.16812 4.71233 -3.16812C4.93151 -3.16812 5.25031 -3.34745 5.25031 -3.74595C5.25031 -4.26401 4.66252 -4.40349 4.32379 -4.40349C3.74595 -4.40349 3.39726 -3.87547 3.27771 -3.64633C3.02864 -4.30386 2.49066 -4.40349 2.20174 -4.40349C1.16563 -4.40349 0.597758 -3.11831 0.597758 -2.86924C0.597758 -2.76961 0.697385 -2.76961 0.71731 -2.76961C0.797011 -2.76961 0.826899 -2.78954 0.846824 -2.8792C1.18555 -3.93524 1.84309 -4.18431 2.18182 -4.18431C2.37111 -4.18431 2.7198 -4.09465 2.7198 -3.51681C2.7198 -3.20797 2.55044 -2.54047 2.18182 -1.1457C2.02242 -0.52802 1.67372 -0.109589 1.23537 -0.109589C1.17559 -0.109589 0.946451 -0.109589 0.737235 -0.239103C0.986301 -0.288917 1.20548 -0.498132 1.20548 -0.777086C1.20548 -1.04608 0.986301 -1.12578 0.836862 -1.12578C0.537983 -1.12578 0.288917 -0.86675 0.288917 -0.547945C0.288917 -0.0896638 0.787049 0.109589 1.2254 0.109589C1.88294 0.109589 2.24159 -0.587796 2.27148 -0.647572C2.39103 -0.278954 2.74969 0.109589 3.34745 0.109589C4.3736 0.109589 4.94147 -1.17559 4.94147 -1.42466C4.94147 -1.52428 4.85181 -1.52428 4.82192 -1.52428C4.73225 -1.52428 4.71233 -1.48443 4.6924 -1.41469C4.36364 -0.348692 3.68618 -0.109589 3.36737 -0.109589C2.97883 -0.109589 2.81943 -0.428394 2.81943 -0.767123C2.81943 -0.986301 2.8792 -1.20548 2.98879 -1.64384ZM2.98879 -1.64384" fill="black"/>
  <path d="M5.68694 1.49438M6.21696 2.34519C6.16814 2.54046 6.15419 2.59625 5.87524 2.59625C5.78458 2.59625 5.68694 2.59625 5.68694 2.7427C5.68694 2.81941 5.74971 2.84731 5.78458 2.84731C5.9659 2.84731 6.19604 2.81941 6.38433 2.81941C6.62144 2.81941 6.88645 2.84731 7.11658 2.84731C7.17935 2.84731 7.25606 2.82639 7.25606 2.69388C7.25606 2.59625 7.15843 2.59625 7.07474 2.59625C6.92132 2.59625 6.73302 2.59625 6.73302 2.51256C6.73302 2.47769 6.78184 2.29637 6.80973 2.19177C6.89342 1.82215 6.99105 1.44556 7.06777 1.15266C7.15145 1.29214 7.36764 1.56412 7.78607 1.56412C8.63688 1.56412 9.57835 0.62265 9.57835 -0.416454C9.57835 -1.23239 9.01347 -1.58109 8.53227 -1.58109C8.0999 -1.58109 7.73028 -1.28818 7.54199 -1.09292C7.42343 -1.49043 7.0329 -1.58109 6.82368 -1.58109C6.5517 -1.58109 6.38433 -1.39977 6.27275 -1.21147C6.13327 -0.974361 6.02169 -0.555931 6.02169 -0.514087C6.02169 -0.423427 6.11932 -0.423427 6.14025 -0.423427C6.23788 -0.423427 6.24485 -0.444349 6.29367 -0.632643C6.39828 -1.03713 6.53078 -1.38582 6.80276 -1.38582C6.98408 -1.38582 7.0329 -1.23239 7.0329 -1.0441C7.0329 -0.967388 7.01895 -0.876728 7.01198 -0.834884ZM7.01198 -0.834884M7.53501 -0.744224C7.9395 -1.28121 8.28819 -1.38582 8.51135 -1.38582C8.78333 -1.38582 9.02044 -1.18358 9.02044 -0.709355C9.02044 -0.423427 8.86702 0.287905 8.6578 0.692388C8.48346 1.03411 8.14174 1.36885 7.78607 1.36885C7.29093 1.36885 7.1654 0.831865 7.1654 0.762127C7.1654 0.734231 7.17935 0.685414 7.18632 0.657519ZM7.18632 0.657519" fill="black"/>
 </g>
 <g transform="matrix(1.000000,0.000000,0.000000,1.000000,-9.921260,-43.429291)">
  <path d="M0.288917 -0M4.84184 -3.79577C4.88169 -3.93524 4.88169 -3.95517 4.88169 -4.02491C4.88169 -4.20423 4.74222 -4.2939 4.59278 -4.2939C4.49315 -4.2939 4.33375 -4.23412 4.24408 -4.08468C4.22416 -4.03487 4.14446 -3.72603 4.10461 -3.5467C4.03487 -3.28767 3.96513 -3.01868 3.90535 -2.74969L3.45704 -0.956413C3.41719 -0.806974 2.98879 -0.109589 2.33126 -0.109589C1.82316 -0.109589 1.71357 -0.547945 1.71357 -0.916563C1.71357 -1.37484 1.88294 -1.99253 2.22167 -2.86924C2.38107 -3.27771 2.42092 -3.3873 2.42092 -3.58655C2.42092 -4.03487 2.10212 -4.40349 1.60399 -4.40349C0.657534 -4.40349 0.288917 -2.9589 0.288917 -2.86924C0.288917 -2.76961 0.388543 -2.76961 0.408468 -2.76961C0.508095 -2.76961 0.518057 -2.78954 0.56787 -2.94894C0.836862 -3.88543 1.23537 -4.18431 1.5741 -4.18431C1.6538 -4.18431 1.82316 -4.18431 1.82316 -3.8655C1.82316 -3.61644 1.72354 -3.35741 1.6538 -3.16812C1.25529 -2.11208 1.07597 -1.54421 1.07597 -1.07597C1.07597 -0.18929 1.70361 0.109589 2.29141 0.109589C2.67995 0.109589 3.01868 -0.0597758 3.29763 -0.33873C3.16812 0.179328 3.04857 0.667497 2.65006 1.19552C2.39103 1.53425 2.01245 1.82316 1.55417 1.82316C1.41469 1.82316 0.966376 1.79328 0.797011 1.40473C0.956413 1.40473 1.08593 1.40473 1.2254 1.28518C1.32503 1.19552 1.42466 1.066 1.42466 0.876712C1.42466 0.56787 1.15567 0.52802 1.05604 0.52802C0.826899 0.52802 0.498132 0.687422 0.498132 1.17559C0.498132 1.67372 0.936488 2.04234 1.55417 2.04234C2.58032 2.04234 3.60648 1.13574 3.88543 0.00996264ZM3.88543 0.00996264" fill="black"/>
  <path d="M4.87753 1.49438M5.40754 2.34519C5.35872 2.54046 5.34477 2.59625 5.06582 2.59625C4.97516 2.59625 4.87753 2.59625 4.87753 2.7427C4.87753 2.81941 4.94029 2.84731 4.97516 2.84731C5.15648 2.84731 5.38662 2.81941 5.57491 2.81941C5.81202 2.81941 6.07703 2.84731 6.30716 2.84731C6.36993 2.84731 6.44664 2.82639 6.44664 2.69388C6.44664 2.59625 6.34901 2.59625 6.26532 2.59625C6.1119 2.59625 5.9236 2.59625 5.9236 2.51256C5.9236 2.47769 5.97242 2.29637 6.00032 2.19177C6.084 1.82215 6.18164 1.44556 6.25835 1.15266C6.34203 1.29214 6.55822 1.56412 6.97665 1.56412C7.82746 1.56412 8.76893 0.62265 8.76893 -0.416454C8.76893 -1.23239 8.20405 -1.58109 7.72286 -1.58109C7.29048 -1.58109 6.92086 -1.28818 6.73257 -1.09292C6.61401 -1.49043 6.22348 -1.58109 6.01426 -1.58109C5.74228 -1.58109 5.57491 -1.39977 5.46333 -1.21147C5.32385 -0.974361 5.21227 -0.555931 5.21227 -0.514087C5.21227 -0.423427 5.3099 -0.423427 5.33083 -0.423427C5.42846 -0.423427 5.43543 -0.444349 5.48425 -0.632643C5.58886 -1.03713 5.72136 -1.38582 5.99334 -1.38582C6.17466 -1.38582 6.22348 -1.23239 6.22348 -1.0441C6.22348 -0.967388 6.20953 -0.876728 6.20256 -0.834884ZM6.20256 -0.834884M6.7256 -0.744224C7.13008 -1.28121 7.47877 -1.38582 7.70193 -1.38582C7.97391 -1.38582 8.21103 -1.18358 8.21103 -0.709355C8.21103 -0.423427 8.0576 0.287905 7.84839 0.692388C7.67404 1.03411 7.33232 1.36885 6.97665 1.36885C6.48151 1.36885 6.35598 0.831865 6.35598 0.762127C6.35598 0.734231 6.36993 0.685414 6.3769 0.657519ZM6.3769 0.657519" fill="black"/>
 </g>
 <path d="M-70.8661 -0L66.4315 -0" stroke="black"/>
 <g stroke-linecap="butt" stroke-dasharray="none">
  <path d="M65.3229 -2.2961L70.8661 -0L65.3229 2.2961L66.4315 -0Z" fill="black"/>
 </g>
 <path d="M0 70.8661L0 -66.4315" stroke="black"/>
 <g stroke-linecap="butt" stroke-dasharray="none">
  <path d="M-2.2961 -65.3229L0 -70.8661L2.2961 -65.3229L0 -66.4315Z" fill="black"/>
 </g>
</svg>
